<svg id="eBaZbszP3Cx1" xmlns="http://www.w3.org/2000/svg" xmlns:xlink="http://www.w3.org/1999/xlink" viewBox="0 0 300 300" shape-rendering="geometricPrecision" text-rendering="geometricPrecision" style="background-color:rgba(0,0,0,0)"><defs><radialGradient id="eBaZbszP3Cx2-fill" cx="0" cy="0" r="0.5" spreadMethod="pad" gradientUnits="objectBoundingBox" gradientTransform="translate(0.5 0.5)"><stop id="eBaZbszP3Cx2-fill-0" offset="0%" stop-color="#575656"/><stop id="eBaZbszP3Cx2-fill-1" offset="100%" stop-color="#fff"/></radialGradient><radialGradient id="eBaZbszP3Cx5-fill" cx="0" cy="0" r="0.5" spreadMethod="pad" gradientUnits="objectBoundingBox" gradientTransform="translate(0.5 0.5)"><stop id="eBaZbszP3Cx5-fill-0" offset="0%" stop-color="#7a7a7a"/><stop id="eBaZbszP3Cx5-fill-1" offset="100%" stop-color="#fff"/></radialGradient><radialGradient id="eBaZbszP3Cx6-fill" cx="0" cy="0" r="0.5" spreadMethod="pad" gradientUnits="objectBoundingBox" gradientTransform="translate(0.5 0.5)"><stop id="eBaZbszP3Cx6-fill-0" offset="0%" stop-color="#6c6c6c"/><stop id="eBaZbszP3Cx6-fill-1" offset="100%" stop-color="#fff"/></radialGradient><radialGradient id="eBaZbszP3Cx9-fill" cx="0" cy="0" r="0.5" spreadMethod="pad" gradientUnits="objectBoundingBox" gradientTransform="translate(0.5 0.5)"><stop id="eBaZbszP3Cx9-fill-0" offset="0%" stop-color="#494949"/><stop id="eBaZbszP3Cx9-fill-1" offset="100%" stop-color="#fff"/></radialGradient><radialGradient id="eBaZbszP3Cx10-fill" cx="0" cy="0" r="0.5" spreadMethod="pad" gradientUnits="objectBoundingBox" gradientTransform="translate(0.5 0.5)"><stop id="eBaZbszP3Cx10-fill-0" offset="0%" stop-color="#3c3c3c"/><stop id="eBaZbszP3Cx10-fill-1" offset="100%" stop-color="#fff"/></radialGradient><linearGradient id="eBaZbszP3Cx11-fill" x1="0" y1="0.5" x2="1" y2="0.5" spreadMethod="pad" gradientUnits="objectBoundingBox" gradientTransform="translate(0 0)"><stop id="eBaZbszP3Cx11-fill-0" offset="0%" stop-color="#453b96"/><stop id="eBaZbszP3Cx11-fill-1" offset="26%" stop-color="#979797"/><stop id="eBaZbszP3Cx11-fill-2" offset="88%" stop-color="#9d91ff"/></linearGradient><radialGradient id="eBaZbszP3Cx12-fill" cx="0" cy="0" r="0.5" spreadMethod="pad" gradientUnits="objectBoundingBox" gradientTransform="translate(0.5 0.5)"><stop id="eBaZbszP3Cx12-fill-0" offset="0%" stop-color="#fff"/><stop id="eBaZbszP3Cx12-fill-1" offset="100%" stop-color="#353bbd"/></radialGradient><radialGradient id="eBaZbszP3Cx13-fill" cx="0" cy="0" r="0.5" spreadMethod="pad" gradientUnits="objectBoundingBox" gradientTransform="translate(0.5 0.5)"><stop id="eBaZbszP3Cx13-fill-0" offset="0%" stop-color="#757575"/><stop id="eBaZbszP3Cx13-fill-1" offset="100%" stop-color="#4c54ff"/></radialGradient><radialGradient id="eBaZbszP3Cx14-fill" cx="0" cy="0" r="0.5" spreadMethod="pad" gradientUnits="objectBoundingBox" gradientTransform="translate(0.5 0.5)"><stop id="eBaZbszP3Cx14-fill-0" offset="0%" stop-color="#454545"/><stop id="eBaZbszP3Cx14-fill-1" offset="100%" stop-color="#7e83ff"/></radialGradient></defs><path style="mix-blend-mode:darken" d="M49.090157,93.465674l-.82713-20.678246l12.406948-.82713.82713-14.061208l19.023987-.82713l14.061206,4.962779-7.444169,19.851117-6.61704-13.234078h-9.09843L62.324231,82.712986l-1.65426,9.925558v15.715468l14.061208,5.789909l15.715467-.827131v-14.888338l-11.579818,1.65426v-8.271299l19.023987.82713v21.505377l-12.406948,5.789909-22.332506,1.654258-8.271299-7.444169-5.789905-20.678244Z" transform="translate(-19.263027 0.000006)" paint-order="fill markers stroke" fill="url(#eBaZbszP3Cx2-fill)" stroke="#3f5787" stroke-width="0.6"/><g transform="translate(.000001 1)"><path d="M31.72043,225.80645c52.3654,5.81837,101.16255,26.77961,154.67328,14.88834c18.6935-4.15411,37.36313-8.87015,55.4177-14.88834c6.6671-2.22237,13.13801-5.20647,19.85112-7.44417c4.09408-1.36469,11.57982-10.10545,11.57982-5.78991c0,2.15336-2.84363,3.24009-4.13565,4.96278-7.70866,10.27822-12.78624,26.84745-21.50538,35.56658-1.30781,1.30781-3.11326,2.48139-4.96278,2.48139-10.4266,0-17.19897-13.25542-30.6038-11.57982-44.24807,5.53101-89.53534,33.41404-135.6493,19.85112-18.50101-5.44147-26.1408-23.64042-43.83788-28.94954-.57925-.17377-8.12394-1.30255-8.2713-2.48139-.43956-3.51652,5.35549-6.19096,7.44417-7.44417v.82713Z" fill="none" stroke="#3f5787" stroke-width="0.6"/></g><path d="M114.433416,114.97105l2.48139-16.542593l10.752688-9.098429-2.48139-16.542596l1.65426-14.888338h15.715467L150,71.960302l4.962779,17.369726v9.098428l9.925558,9.92556-14.888338,4.962778-5.78991-13.234078l1.654259-10.752688-2.481391-12.406952-4.13565-14.888333-8.2713,6.617039l3.308519,13.234078-4.135651,16.542596-4.13565,15.715466-11.579809.827128Z" transform="translate(-24.433416 0.000001)" fill="url(#eBaZbszP3Cx5-fill)" stroke="#3f5787" stroke-width="0.6"/><path style="mix-blend-mode:darken" d="M116.914817,98.428458c-3.880013-2.311181-9.09844-11.993385-9.09844-11.993385l6.61705-9.511996l18.175315,9.741866l41.784886,3.095177-33.27315,11.606912-13.452973-1.284319c0,0-7.948688.015985-10.752688-1.654255Z" transform="translate(-30.197084 4.642769)" fill="url(#eBaZbszP3Cx6-fill)" stroke="#3f5787" stroke-width="0.6"/><g transform="translate(-41.70224 0)"><g><path d="M195.49214,114.143921l-5.789907-24.813892l9.925559-7.444168.827128-25.641031l20.678246,12.406952l7.444169-17.369733l16.542597,17.369732l4.962779,24.813896-5.789909,21.505372-8.271299-21.505372v-20.678246l-7.444168-4.13565-6.617039,24.813896-12.406948-21.505376-7.444169,26.468154-6.617039,15.715466Z" transform="translate(.000002 0.000002)" fill="url(#eBaZbszP3Cx9-fill)" stroke="#3f5787" stroke-width="0.6"/></g></g><path d="M225.268817,108.354017c-6.617039-14.888337-16.542598-3.308519-6.617039-14.888337s10.752688,1.654261,9.925558-11.579818s9.098428-6.617042-.827131-13.23408-13.234079,4.135653-9.925559-6.61704-28.949544-9.098434,3.30852-10.752693s17.369725-14.061211,32.258063-1.654259s25.641026,5.789912,14.888338,12.406952-3.308519,17.369728-10.752688,6.61704s9.925558-10.752688-7.444169-10.752688-26.468155-10.752688-17.369727,0s13.234077,2.481391,9.098428,10.752688-31.430934,3.308517-4.135649,8.271297s36.393714.413564,24.813896,4.96278s4.135649,2.481386-11.579818,4.549212-17.369726-7.857732-15.715467,2.067826-14.888338,9.925558,1.654259,9.925558s6.617038,6.617038,16.542597,0s8.2713-13.234081,9.925559-6.617038q1.654259,6.617043,9.098428,16.542598l-14.888338.000001q-32.258061.000002-32.258061.000001Z" transform="translate(.000005 0.000002)" fill="url(#eBaZbszP3Cx10-fill)" stroke="#3f5787" stroke-width="0.6"/><path d="M68.94127,213.3995c-18.56087-18.56087-12.205338-35.53046-13.473118-37.22084-2.34848-3.13131-28.959322-14.8592-25.401982-23.15964c3.17955-7.41894,42.773728-11.138544,48.561618-10.752684c11.50348.7669,28.817852,18.272765,37.840372,27.295285c10.60288,10.60288,12.986963,6.579597,18.643503,19.023987c2.76182,6.076,5.343258,17.312532,5.343258,23.986762c0,11.08464-12.289169-10.870746-14.888337-14.888334-6.59726-10.197517,4.177432-2.138086.827131-9.098428-2.928983-6.085043-68.373945-38.905478-71.513645-36.393718-1.29176,1.03341-.27196,3.33103,0,4.96278c1.40596,8.43578,10.107211,24.122519,12.995032,31.430938c6.514805,16.487493,33.165253,28.619652,31.223338,24.813892-2.23409-4.378364-2.152099,18.530151-14.441699,14.061211-6.24684-2.27158-11.717251-9.557381-15.715471-14.888341" fill="url(#eBaZbszP3Cx11-fill)" stroke="#3f5787" stroke-width="0.6"/><path d="M150.82713,210.09098c-1.40236-14.02364-5.63192-27.28135-12.40695-39.70223-2.125-3.89583-17.56693-14.41617-13.23408-6.61704c11.36347,20.45424,58.66339.23382,62.03474,2.48139c2.21319,1.47546,1.72431,17.39757,2.48139,20.67825c1.51244,6.5539,7.63873,23.75978,2.48139,29.77667-1.81083,2.11263-6.82325.29913-8.2713-.82713-6.47871-5.039.10027-20.89543-3.30852-32.25806-.40397-1.34656-1.45585-2.87822-.82713-4.13565.71896-1.43793,4.85461-1.04346,4.13565-2.48139-.69239-1.38478-14.27056,3.0677-15.71547,3.30852-2.99774.49962-18.53542-1.97355-19.85112,0-2.82866,4.243,19.29035,32.14391,7.44417,37.22084-4.76582,2.04249-4.48372-4.19305-4.96278-5.78991-2.34625-7.82084-9.89751-51.67808-13.23408-53.76344-6.18552-3.86595-24.71529.50834-19.02399,10.75269c3.44635,6.20343,21.32634,1.48656,27.29529,2.48139" fill="url(#eBaZbszP3Cx12-fill)" stroke="#3f5787" stroke-width="0.6"/><path d="M205.4177,216.70802c3.57536-21.45215,30.24992-108.35401-16.5426-108.35401-6.86947,0-26.89934,23.21116-17.36973,27.29528c6.90587,2.95966,29.13217-17.55766,33.91232-.82713c1.06311,3.72088.50576,7.72341.82713,11.57982c1.40901,16.9081,2.47712,35.58365-1.65426,52.10918-.65263,2.61054-9.75198,25.87588-8.2713,26.46816c1.71723.68689,3.44759-1.42076,4.96278-2.48139c8.23413-5.76389,11.83747-57.58727,17.36973-68.65178c4.52815-9.05629,21.95164-.00771,25.64103,5.78991c2.33657,3.67175,4.65019,11.24324,3.30852,15.71547-.81567,2.71889-4.882537,10.182756-4.13565,7.44417c7.444173-27.295287,5.92469-27.3443,14.88834-30.60381c5.00491-1.81997,14.11931,3.08226,16.5426,7.44417.68274,1.22893,1.95181,4.97916.82713,4.13565-5.07312-3.80484-6.124-12.57473-11.57982-16.5426-5.92436-4.30862-46.45246,2.77006-58.72622,1.65426-7.84085-.7128-42.648-15.12757-43.01075-12.40695-.31214,2.34102,2.20084,28.31218,4.96278,28.94955c11.08462,2.55799,25.79671-9.09843,37.22084-9.09843c14.08652,0-31.430934,110.008274,42.18362,7.44417" transform="translate(0 0.000001)" fill="url(#eBaZbszP3Cx13-fill)" stroke="#3f5787" stroke-width="0.6"/><path d="M63.9785,190.23987c11.78361-2.9459,50.91417-25.27552,52.93631-9.09843.24181,1.93451-2.45166,3.15332-4.13565,4.13565-16.63037,9.70105-36.93858,9.20948-53.76344,19.02399-6.55935,3.82629-9.92556,9.11751-9.92556,16.5426c0,2.60104,5.29887,8.94348,4.13565,6.61704-2.85203-5.70405-19.9214-18.52842-12.40695-27.29529c5.18179-6.04542,12.66822,3.13434,17.36973,0c8.69739-5.79826,20.11873-10.74662,28.94955-17.36973" transform="translate(0 0.000001)" fill="url(#eBaZbszP3Cx14-fill)" stroke="#3f5787" stroke-width="0.6"/></svg>
